<?xml version="1.0" encoding="UTF-8" standalone="no"?>
<!DOCTYPE svg PUBLIC "-//W3C//DTD SVG 1.1//EN" "http://www.w3.org/Graphics/SVG/1.1/DTD/svg11.dtd">
<svg width="100%" height="100%" viewBox="0 0 1132 631" version="1.1" xmlns="http://www.w3.org/2000/svg" xmlns:xlink="http://www.w3.org/1999/xlink" xml:space="preserve" xmlns:serif="http://www.serif.com/" style="fill-rule:evenodd;clip-rule:evenodd;stroke-linejoin:round;stroke-miterlimit:2;">
    <g transform="matrix(1,0,0,1,-3125.566221,-1120.180268)">
        <path d="M3629.75,1402.94C3627.39,1404.83 3624.91,1407.45 3621.99,1405.33C3620.57,1404.3 3619.98,1401.07 3620.23,1398.98C3623.17,1374.79 3615.39,1355.49 3592.17,1346.25C3564.61,1335.28 3538.99,1342.06 3516.25,1360.18C3509.84,1365.28 3504.27,1371.43 3498.32,1377.1C3497.74,1355.25 3512.2,1345.26 3527.95,1336.34C3561.62,1317.27 3603.52,1322.78 3627.12,1349.34C3642.39,1366.52 3643.61,1391.89 3629.75,1402.94ZM4166.92,1590.29C4133.21,1578.89 4097.2,1576.44 4062.67,1588.48C4041.59,1595.84 4023.86,1609.56 4003.62,1620.16C4015.64,1576.19 4097.27,1554.32 4162.75,1575.48C4163.39,1575.8 4270.77,1630.47 4235.62,1596.35C4200.36,1562.14 4167.69,1540.88 4167.69,1540.88C4140.89,1518.55 4111.65,1501.38 4076.13,1497.35C4034.43,1492.63 4005.75,1515.42 3977.71,1541.86C3940.74,1576.71 3895.86,1591.71 3845.09,1588.01C3783.28,1583.52 3742.17,1539.25 3747.22,1483.07C3750.86,1442.7 3788.25,1413.95 3827.6,1421.27C3848.39,1425.14 3858.33,1443.96 3847.19,1459.19C3841.72,1441.48 3826.61,1440.48 3812.27,1439.73C3795.3,1438.84 3783.97,1448.66 3776.38,1462.86C3755.79,1501.41 3778.51,1551.93 3822.54,1566.12C3861.43,1578.66 3898.38,1574.44 3934.3,1555C3977.96,1531.38 4001.19,1484.59 3993.73,1432.93C3986.44,1382.48 3949.59,1342.79 3900.43,1335.12C3887.94,1333.17 3887.66,1328.79 3889.34,1318.97C3896.03,1279.98 3883.68,1252.37 3849.95,1231.68C3818.3,1212.28 3783.88,1210.2 3748.62,1218.46C3738.44,1220.85 3732.99,1222.19 3730.81,1208.56C3727.15,1185.66 3713.65,1167.85 3695.55,1153.37C3639.27,1108.35 3543.3,1109.25 3488.02,1155.34C3471.23,1169.34 3458.26,1186.01 3455.34,1207.91C3453.61,1220.9 3449.98,1222.98 3437.19,1220.3C3384.82,1209.33 3335.83,1235.34 3315.36,1282.34C3307.24,1300.99 3310.62,1319.28 3315.73,1339.21C3309.02,1337.34 3305.07,1335.87 3300.99,1335.21C3296.24,1334.44 3291.39,1334.17 3286.57,1334.07C3230.65,1332.91 3188.68,1357.24 3156.48,1402.39C3102.54,1478.03 3120.98,1586.04 3197.82,1637.7C3246.91,1670.7 3314.09,1669.35 3356.94,1634.05C3374.41,1619.65 3382.45,1601.47 3376.47,1578.02C3354.97,1593.56 3326.26,1589.03 3308.38,1567.96C3278.65,1532.89 3282.24,1490.77 3317.52,1461C3371.51,1415.45 3461.68,1417.73 3520.66,1464.23C3549.67,1487.11 3566.53,1518.34 3584.98,1548.49C3621.38,1607.99 3665.31,1655.9 3740.87,1660.35C3743.77,1660.52 3747.31,1660.67 3747.07,1664.9C3746.88,1668.36 3744.29,1670.43 3741.06,1670.45C3730.23,1670.51 3719.11,1671.75 3708.62,1669.78C3652.14,1659.16 3613.07,1623.21 3581.04,1578.52C3564.2,1555.02 3550.16,1529.53 3533.9,1505.58C3496.43,1450.34 3417.11,1427.65 3356.66,1455.08C3334.77,1465.01 3318.43,1480.77 3313.22,1506.81C3318.74,1505.61 3322.76,1504.79 3326.76,1503.85C3375.21,1492.46 3407.67,1506.99 3430.44,1550.8C3437.12,1563.64 3442.95,1576.93 3448.8,1590.17C3466.6,1630.4 3495.03,1660.19 3534.48,1679.88C3554.43,1689.83 3574.49,1699.94 3593.06,1712.16C3619.82,1729.78 3648.65,1741.49 3679.95,1746.43C3734.2,1754.99 3787.57,1754.77 3834.03,1719.53C3845.34,1710.94 3854.92,1706.64 3869.65,1710.06C3885.35,1713.71 3901.96,1712.31 3918.19,1709.17C3956.02,1701.86 3990.82,1687.19 4023.53,1667.21C4067.84,1640.14 4114.46,1622.48 4167.69,1631.53C4174.43,1633.68 4253.59,1662.45 4256.81,1648.66C4258.1,1643.15 4232.26,1625.45 4227.98,1622.27C4217.29,1614.35 4205.88,1607.4 4193.95,1601.51C4185.16,1597.18 4176.13,1593.4 4166.92,1590.29Z" style="fill:rgb(209,32,38);fill-rule:nonzero;"/>
    </g>
</svg>
